<?xml version="1.0" encoding="utf-8"?>
<!-- Generator: Adobe Illustrator 15.1.0, SVG Export Plug-In . SVG Version: 6.00 Build 0)  -->
<!DOCTYPE svg PUBLIC "-//W3C//DTD SVG 1.1//EN" "http://www.w3.org/Graphics/SVG/1.1/DTD/svg11.dtd">
<svg version="1.1" id="Layer_1" xmlns="http://www.w3.org/2000/svg" xmlns:xlink="http://www.w3.org/1999/xlink" x="0px" y="0px"
	 width="595.28px" height="544px" viewBox="0 0 595.28 544" enable-background="new 0 0 595.28 544" xml:space="preserve">

<polygon fill="#00539F" points="168.875,192.184 168.875,149.567 57.644,149.567 57.644,192.184 83.163,192.184 83.163,283.344 
	57.644,283.344 57.644,325.961 168.875,325.961 168.875,283.344 143.356,283.344 143.356,192.184 "/>
<path fill="#00539F" d="M291.625,217.25c-6.875-2-42.25-12.125-48.375-14.125s-11.125-4.875-11.125-8.5s5.625-7.5,17-7.5
	c35.875,0,53.109,22.125,53.109,22.125s1.942,2.587,2.593,3.515h34.612v-60.363h-37.157v10.982
	c-2.838-1.96-23.79-15.634-56.282-15.634c-42.875,0-66.75,22.25-66.75,55.5s30.125,47,38.5,50.5s41.125,12.75,55.125,17.125
	s19.125,7.5,19.125,9.75s-6.125,8.125-23.625,8.125c-30.483,0-46.181-17.976-48.936-21.457v-0.027
	c-0.876-1.174-1.904-2.563-2.253-3.086c-0.404-0.605-1.341-1.948-1.991-2.876h-34.612v64.461h38.856v-13.461
	c4.521,3.009,27.664,17.446,55.436,17.446c31,0,70.5-13.5,70.5-55.625S298.5,219.25,291.625,217.25z"/>
<path fill="#00539F" d="M444.035,147.157c-51.678,0-94.062,25.838-94.062,91.795s46.011,90.662,94.288,90.662
	s93.835-24.479,93.835-89.981S492.54,147.157,444.035,147.157z M444.489,285.643c-17.68,0-29.013-4.08-29.013-46.917
	c0-42.838,8.387-47.371,29.692-47.371c12.919,0,28.559,0.906,28.559,46.011S462.169,285.643,444.489,285.643z"/>
<g>
	<path fill="#00539F" d="M131.76,130.114c11.617-17.154,25.903-32.36,42.28-44.988c6.622,4.896,13.661,9.337,21.061,13.295
		c-12.398,13.82-23.506,29.131-25.346,31.693h7.439c4.465-6.018,13.701-18.124,23.44-28.857
		c10.645,5.233,21.958,9.513,33.762,12.773c-3.142,6.666-5.517,12.495-6.911,16.084h6.463c1.485-3.696,3.661-8.851,6.376-14.547
		c15.058,3.679,30.836,5.741,46.977,6.055v8.493h6v-8.464c16.023-0.117,31.714-1.943,46.719-5.374
		c2.558,5.411,4.617,10.296,6.04,13.837h6.463c-1.34-3.447-3.582-8.957-6.543-15.296c12.015-3.126,23.544-7.294,34.402-12.445
		c9.366,10.448,18.122,21.932,22.433,27.741h7.438c-1.783-2.483-12.316-17.006-24.285-30.505
		c8.229-4.253,16.031-9.092,23.324-14.483c16.377,12.628,30.664,27.834,42.28,44.988h7.217
		c-35.488-54.771-97.142-91.087-167.124-91.087s-131.636,36.316-167.124,91.087H131.76z M237.073,108.543
		c-11.228-3.033-22.001-7.009-32.157-11.873c1.38-1.434,2.759-2.823,4.122-4.138c13.907-13.411,36.781-28.137,41.795-31.307
		c4.069,2.235,8.509,4.125,13.232,5.625c-3.668,4.81-10.87,14.574-18.713,26.959C242.299,98.629,239.518,103.695,237.073,108.543z
		 M287.301,115.62c-15.196-0.304-30.054-2.196-44.256-5.564c2.221-4.342,4.699-8.81,7.376-13.036
		c9.036-14.267,17.188-24.979,19.904-28.464c5.419,1.273,11.114,2.078,16.976,2.341V115.62z M293.301,115.65V70.965
		c5.783-0.098,11.441-0.71,16.856-1.799c3.104,4.015,10.872,14.339,19.431,27.854c2.816,4.447,5.413,9.161,7.722,13.716
		C323.158,113.866,308.386,115.538,293.301,115.65z M343.325,109.315c-2.537-5.08-5.454-10.43-8.669-15.506
		c-7.438-11.746-14.302-21.136-18.119-26.178c5.023-1.411,9.765-3.245,14.119-5.464c7.039,4.512,27.483,17.992,40.314,30.365
		c1.703,1.643,3.429,3.398,5.153,5.218C365.755,102.537,354.765,106.412,343.325,109.315z M404.268,81.375
		c-7.039,5.081-14.56,9.633-22.479,13.635c-2.213-2.374-4.445-4.667-6.654-6.797c-12.001-11.573-29.87-23.714-38.625-29.415
		c2.974-1.928,5.694-4.06,8.119-6.381C366.3,58.609,386.419,68.51,404.268,81.375z M291.667,45.027
		c15.844,0,31.243,1.933,45.988,5.551c-11.19,9.089-27.957,14.421-45.988,14.421c-18.113,0-34.834-5.315-46.009-14.416
		C260.408,46.962,275.814,45.027,291.667,45.027z M238.702,52.417c1.974,1.892,4.135,3.662,6.476,5.294
		c-7.932,5.104-27.469,18.125-40.304,30.501c-1.848,1.782-3.711,3.68-5.567,5.642c-7.099-3.717-13.869-7.88-20.24-12.479
		C196.913,68.51,217.031,58.61,238.702,52.417z"/>
	<path fill="#00539F" d="M451.582,345.947c-11.37,16.793-25.3,31.717-41.243,44.185c-7.593-5.71-15.743-10.814-24.362-15.272
		c10.383-11.712,19.686-24.194,23.13-28.912h-7.472c-4.606,6.15-12.669,16.583-21.245,26.15
		c-10.858-5.153-22.386-9.324-34.403-12.449c2.541-5.441,4.548-10.263,5.914-13.701h-6.482c-1.374,3.352-3.201,7.605-5.396,12.248
		c-14.996-3.426-30.685-5.251-46.721-5.367v-6.881h-6v6.908c-16.154,0.313-31.931,2.373-46.98,6.047
		c-2.344-4.917-4.287-9.434-5.73-12.955h-6.483c1.431,3.604,3.567,8.728,6.283,14.49c-11.807,3.261-23.124,7.535-33.768,12.771
		c-8.944-9.859-17.461-20.872-22.248-27.262h-7.472c3.558,4.875,13.385,18.057,24.197,30.107
		c-7.787,4.17-15.181,8.869-22.106,14.077c-15.944-12.468-29.874-27.392-41.243-44.185h-7.206
		c35.489,54.771,97.141,91.087,167.122,91.087c69.98,0,131.633-36.315,167.122-91.087H451.582z M343.328,365.155
		c11.444,2.902,22.434,6.776,32.803,11.565c-1.727,1.822-3.454,3.58-5.16,5.226c-12.791,12.333-33.17,25.782-40.262,30.33
		c-4.354-2.228-9.102-4.062-14.141-5.473c3.824-5.051,10.67-14.423,18.088-26.136C337.873,375.59,340.79,370.237,343.328,365.155z
		 M293.301,358.828c15.097,0.112,29.869,1.779,44.012,4.905c-2.31,4.558-4.907,9.273-7.726,13.724
		c-8.547,13.496-16.303,23.809-19.416,27.836c-5.4-1.076-11.058-1.683-16.871-1.779V358.828z M287.301,358.858v44.718
		c-5.884,0.261-11.585,1.056-16.997,2.32c-2.735-3.511-10.861-14.193-19.883-28.439c-2.679-4.229-5.159-8.7-7.381-13.046
		C257.234,361.047,272.092,359.161,287.301,358.858z M237.07,365.929c2.446,4.851,5.229,9.917,8.282,14.739
		c7.837,12.375,15.034,22.133,18.705,26.947c-4.73,1.499-9.165,3.391-13.232,5.632c-5.033-3.184-27.887-17.899-41.786-31.301
		c-1.365-1.316-2.744-2.707-4.126-4.142C215.067,372.938,225.839,368.961,237.07,365.929z M177.98,393.893
		c6.687-4.916,13.817-9.348,21.318-13.277c1.858,1.964,3.725,3.865,5.575,5.649c12.832,12.373,32.363,25.391,40.298,30.497
		c-2.827,1.979-5.404,4.155-7.694,6.517C215.835,416.937,195.76,406.897,177.98,393.893z M291.667,431.034
		c-16.363,0-32.255-2.055-47.437-5.906c11.086-9.742,28.69-15.649,47.437-15.649c18.724,0,36.345,5.911,47.432,15.65
		C323.918,428.98,308.028,431.034,291.667,431.034z M345.853,423.279c-2.722-2.805-5.833-5.363-9.304-7.626
		c8.77-5.711,26.603-17.833,38.586-29.389c2.21-2.131,4.442-4.425,6.657-6.801c8.323,4.21,16.211,9.026,23.561,14.429
		C387.572,406.898,367.496,416.938,345.853,423.279z"/>
</g>

<text x="297.64" y="519" text-anchor="middle" font-family="Arial, Helvetica, sans-serif" font-weight="700" font-size="98" letter-spacing="2" fill="#00539F">14001</text></svg>
